<?xml version="1.0" encoding="UTF-8"?>
<svg id="Layer_1" data-name="Layer 1" xmlns="http://www.w3.org/2000/svg" version="1.1" viewBox="0 0 443.8 72">
  <defs>
    <style>
      .cls-1 {
        fill: #ffe09a;
      }

      .cls-1, .cls-2, .cls-3 {
        stroke-width: 0px;
      }

      .cls-4 {
        stroke-width: .7px;
      }

      .cls-4, .cls-5, .cls-6, .cls-7 {
        fill: none;
        stroke: #21409a;
        stroke-miterlimit: 10;
      }

      .cls-2 {
        fill: #25a7cb;
      }

      .cls-5 {
        stroke-width: .4px;
      }

      .cls-6 {
        stroke-width: .4px;
      }

      .cls-7 {
        stroke-width: .6px;
      }

      .cls-3 {
        fill: #ff1f2d;
      }
    </style>
  </defs>
  <path class="cls-7" d="M214.1,62.5c-.4,0-181.1,0-182.9,0-1.8,0-3.5-.2-5.2-.9-1.8-.7-3.4-2-4.3-3.8-.6-1.1-.8-2.4-.9-3.6,0-1.5-.2-3.1.2-4.6,0,0-5.2-.9-6.7-5.9-.8-2.6-2.3-4.5-3.6-5.7-1.1-1-2.2-1.7-2.1-1.6"/>
  <path class="cls-7" d="M8.8,36.4h0c0,.1.5,1.6-.2,2.1-.8.4-1.2-.3-2-.9-.5-.4-1.8.1-1.3,2.8,0,0-2.1.5-1.5-2.8-1,.2-2.4-.4-3.3-1.6,1-1.2,2.3-1.8,3.3-1.6-.6-3.2,1.5-2.8,1.5-2.8-.5,2.7.8,3.2,1.3,2.8.7-.6,1.1-1.3,2-.9.8.5.2,2,.2,2.1"/>
  <path class="cls-7" d="M8.8,35.6h0c.1,0,1-.6,2.1-1.6,1.3-1.2,2.8-3.1,3.6-5.7,1.5-5,6.7-5.9,6.7-5.9-.4-1.4-.3-3.1-.2-4.5,0-1.2.3-2.5.9-3.6.9-1.7,2.5-3,4.3-3.8,1.6-.7,3.4-.9,5.2-.9h182.9"/>
  <path class="cls-3" d="M8.8,36.5c0,.1.5,1.6-.2,2.1-.8.4-1.2-.3-2-.9-.5-.4-1.8.1-1.3,2.8,0,0-2.1.5-1.5-2.8-1,.2-2.3-.4-3.3-1.6,1-1.2,2.3-1.8,3.3-1.6-.6-3.2,1.5-2.8,1.5-2.8-.5,2.7.8,3.2,1.3,2.8.7-.6,1.1-1.3,2-.9.8.5.2,2.2.2,2.3,0,0,0,.4,0,.7"/>
  <path class="cls-5" d="M8.8,36.5c0,.1.5,1.6-.2,2.1-.8.4-1.2-.3-2-.9-.5-.4-1.8.1-1.3,2.8,0,0-2.1.5-1.5-2.8-1,.2-2.3-.4-3.3-1.6,1-1.2,2.3-1.8,3.3-1.6-.6-3.2,1.5-2.8,1.5-2.8-.5,2.7.8,3.2,1.3,2.8.7-.6,1.1-1.3,2-.9.8.5.2,2.2.2,2.3,0,0,0,.4,0,.7Z"/>
  <path class="cls-7" d="M214,62.5c1,0,2.2,0,2.9-.8.7-.7.9-2.1.1-2.8-.3-.3-.7-.5-1.1-.4-.6.1-.9.7-.6,1.2"/>
  <path class="cls-3" d="M216.1,60.1c.3,0,.5-.5.4-.8-.1-.3-.5-.5-.8-.4-.3.1-.5.5-.4.8,0,.3.5.5.8.4"/>
  <path class="cls-4" d="M216.1,60.1c.3,0,.5-.5.4-.8-.1-.3-.5-.5-.8-.4-.3.1-.5.5-.4.8,0,.3.5.5.8.4Z"/>
  <path class="cls-7" d="M214,9.6c1,0,2.2,0,2.9.8.7.7.9,2.1.1,2.8-.3.3-.7.5-1.1.4-.6-.1-.9-.7-.6-1.2"/>
  <path class="cls-3" d="M216.1,13.1c.3,0,.5-.5.4-.8-.1-.3-.5-.5-.8-.4-.3.1-.5.5-.4.8,0,.3.5.5.8.4"/>
  <path class="cls-4" d="M216.1,13.1c.3,0,.5-.5.4-.8-.1-.3-.5-.5-.8-.4-.3.1-.5.5-.4.8,0,.3.5.5.8.4Z"/>
  <path class="cls-7" d="M229.6,62.5c.4,0,181.1,0,182.9,0s3.5-.2,5.2-.9c1.8-.7,3.4-2,4.3-3.8.6-1.1.8-2.4.9-3.6,0-1.5.2-3.1-.2-4.5,0,0,5.2-.9,6.7-5.9,1.5-5,5.6-7.3,5.6-7.3,0,0-.6,1.5.2,2.1.8.4,1.2-.3,2-.9.5-.4,1.8.1,1.3,2.8,0,0,2.1.5,1.5-2.8,1,.2,2.3-.4,3.3-1.6-1-1.2-2.3-1.8-3.3-1.6.6-3.2-1.5-2.8-1.5-2.8.5,2.7-.8,3.2-1.3,2.8-.7-.6-1.1-1.3-2-.9-.8.5-.2,2.1-.2,2.1,0,0-4.1-2.3-5.6-7.3-1.5-5-6.7-5.9-6.7-5.9.4-1.4.3-3.1.2-4.5,0-1.2-.3-2.5-.9-3.6-.9-1.7-2.5-3-4.3-3.8-1.6-.7-3.4-.9-5.2-.9-1.8,0-182.5,0-182.9,0"/>
  <path class="cls-7" d="M229.7,9.6c-1,0-2.2,0-2.9.8-.7.7-.9,2.1-.1,2.8.3.3.7.5,1.1.4.6-.1.9-.7.6-1.2"/>
  <path class="cls-3" d="M228,13.1c.3,0,.5-.5.4-.8-.1-.3-.5-.5-.8-.4-.3.1-.5.5-.4.8,0,.3.5.5.8.4"/>
  <path class="cls-4" d="M228,13.1c.3,0,.5-.5.4-.8-.1-.3-.5-.5-.8-.4-.3.1-.5.5-.4.8,0,.3.5.5.8.4Z"/>
  <path class="cls-7" d="M229.7,62.5c-1,0-2.2,0-2.9-.8-.7-.7-.9-2.1-.1-2.8.3-.3.7-.5,1.1-.4.6.1.9.7.6,1.2"/>
  <path class="cls-3" d="M228.1,60c.3,0,.5-.5.4-.8-.1-.3-.5-.5-.8-.4-.3.1-.5.5-.4.8,0,.3.5.5.8.4"/>
  <path class="cls-4" d="M228.1,60c.3,0,.5-.5.4-.8-.1-.3-.5-.5-.8-.4-.3.1-.5.5-.4.8,0,.3.5.5.8.4Z"/>
  <path class="cls-7" d="M207.2,17.1c.6.1,1.2.4,1.8.6,2.4,1.2,4.1,3.7,5.2,6.1.4.8.7,1.7,1,2.6.5,1.6.8,3.2,1.4,4.7,1,2.6,2.6,4.3,5.3,4.8"/>
  <path class="cls-7" d="M211.4,28.3c.3-.6.2-1.4-.5-1.7-.8-.3-1.7,0-2,.7-.3.6-.4,1.5.1,2.2,1.4,2,4,.9,4.7-.9.4-1.1,0-2.5-.7-3.4-.8-.9-2.1-1.4-3.3-1.3-1.2.1-2.4.8-3.1,1.7-.8.9-1.2,2.2-1.2,3.4,0,1.3.3,2.6,1,3.7,1.2,1.8,3.3,3.1,5.4,3.4.1,0,.4,0,.4,0h9.7"/>
  <path class="cls-3" d="M210.7,27.2c-.5,0-.9.4-.9.9s.4.9.9.9.9-.4.9-.9-.4-.9-.9-.9"/>
  <path class="cls-5" d="M210.7,27.2c-.5,0-.9.4-.9.9s.4.9.9.9.9-.4.9-.9-.4-.9-.9-.9Z"/>
  <path class="cls-3" d="M207.1,16.9c-.5,0-.9.4-.9.9s.4.9.9.9.9-.4.9-.9-.4-.9-.9-.9"/>
  <path class="cls-5" d="M207.1,16.9c-.5,0-.9.4-.9.9s.4.9.9.9.9-.4.9-.9-.4-.9-.9-.9Z"/>
  <path class="cls-7" d="M207.2,55c.6-.1,1.2-.4,1.8-.6,2.4-1.2,4.1-3.7,5.2-6.1.4-.8.7-1.7,1-2.6.5-1.6.8-3.2,1.4-4.7,1-2.6,2.6-4.3,5.3-4.8"/>
  <path class="cls-7" d="M211.4,43.8c.3.6.2,1.4-.5,1.7-.8.3-1.7,0-2-.7-.3-.6-.4-1.5.1-2.2,1.4-2,4-.9,4.7.9.4,1.1,0,2.5-.7,3.4-.8.9-2.1,1.4-3.3,1.3-1.2-.1-2.4-.8-3.1-1.7-.8-.9-1.2-2.2-1.2-3.4,0-1.3.3-2.6,1-3.7,1.2-1.8,3.3-3.1,5.4-3.4.1,0,.4,0,.4,0h9.7"/>
  <path class="cls-3" d="M210.7,44.9c-.5,0-.9-.4-.9-.9s.4-.9.9-.9.9.4.9.9-.4.9-.9.9"/>
  <path class="cls-5" d="M210.7,44.9c-.5,0-.9-.4-.9-.9s.4-.9.9-.9.9.4.9.9-.4.9-.9.9Z"/>
  <path class="cls-3" d="M207.1,55.1c-.5,0-.9-.4-.9-.9s.4-.9.9-.9.9.4.9.9-.4.9-.9.9"/>
  <path class="cls-5" d="M207.1,55.1c-.5,0-.9-.4-.9-.9s.4-.9.9-.9.9.4.9.9-.4.9-.9.9Z"/>
  <path class="cls-7" d="M236.6,17.1c-.6.1-1.2.4-1.8.6-2.4,1.2-4.1,3.7-5.2,6.1-.4.8-.7,1.7-1,2.6-.5,1.6-.8,3.2-1.4,4.7-1,2.6-2.6,4.3-5.3,4.8"/>
  <path class="cls-7" d="M232.3,28.3c-.3-.6-.2-1.4.5-1.7.8-.3,1.7,0,2,.7.3.6.4,1.5-.1,2.2-1.4,2-4,.9-4.7-.9-.4-1.1,0-2.5.7-3.4.8-.9,2.1-1.4,3.3-1.3,1.2.1,2.4.8,3.1,1.7.8.9,1.2,2.2,1.2,3.4,0,1.3-.3,2.6-1,3.7-1.2,1.8-3.3,3.1-5.4,3.4-.1,0-.4,0-.4,0h-9.7"/>
  <path class="cls-3" d="M233,27c.5,0,.9.4.9.9s-.4.9-.9.9-.9-.4-.9-.9.4-.9.9-.9"/>
  <path class="cls-5" d="M233,27c.5,0,.9.4.9.9s-.4.9-.9.9-.9-.4-.9-.9.4-.9.9-.9Z"/>
  <path class="cls-3" d="M236.6,16.9c.5,0,.9.4.9.9s-.4.9-.9.9-.9-.4-.9-.9.4-.9.9-.9"/>
  <path class="cls-5" d="M236.6,16.9c.5,0,.9.4.9.9s-.4.9-.9.9-.9-.4-.9-.9.4-.9.9-.9Z"/>
  <path class="cls-7" d="M236.6,55c-.6-.1-1.2-.4-1.8-.6-2.4-1.2-4.1-3.7-5.2-6.1-.4-.8-.7-1.7-1-2.6-.5-1.6-.8-3.2-1.4-4.7-1-2.6-2.6-4.3-5.3-4.8"/>
  <path class="cls-7" d="M232.3,43.8c-.3.6-.2,1.4.5,1.7.8.3,1.7,0,2-.7.3-.6.4-1.5-.1-2.2-1.4-2-4-.9-4.7.9-.4,1.1,0,2.5.7,3.4.8.9,2.1,1.4,3.3,1.3,1.2-.1,2.4-.8,3.1-1.7.8-.9,1.2-2.2,1.2-3.4,0-1.3-.3-2.6-1-3.7-1.2-1.8-3.3-3.1-5.4-3.4-.1,0-.4,0-.4,0h-9.7"/>
  <path class="cls-3" d="M233,44.9c.5,0,.9-.4.9-.9s-.4-.9-.9-.9-.9.4-.9.9.4.9.9.9"/>
  <path class="cls-5" d="M233,44.9c.5,0,.9-.4.9-.9s-.4-.9-.9-.9-.9.4-.9.9.4.9.9.9Z"/>
  <path class="cls-3" d="M236.6,55.1c.5,0,.9-.4.9-.9s-.4-.9-.9-.9-.9.4-.9.9.4.9.9.9"/>
  <path class="cls-5" d="M236.6,55.1c.5,0,.9-.4.9-.9s-.4-.9-.9-.9-.9.4-.9.9.4.9.9.9Z"/>
  <polyline class="cls-3" points="204.5 34.3 204.6 34.3 205.8 36 203.7 36"/>
  <polyline class="cls-5" points="204.5 34.3 204.6 34.3 205.8 36 203.7 36"/>
  <polyline class="cls-3" points="203.7 36 205.8 36 204.6 37.7 204.5 37.7"/>
  <polyline class="cls-5" points="203.7 36 205.8 36 204.6 37.7 204.5 37.7"/>
  <line class="cls-7" x1="203.5" y1="36" x2="203.5" y2="36"/>
  <path class="cls-2" d="M198.3,33.1c-.2-.2-.4-.5-.5-.8-.6-1.2-.7-2.4-.7-3.2.5.8,1.1,1.2,1.4,1.3.5.3,1.1.3,1.6.4.8,0,.9,0,1.6,0,.3,0,.8.1,1.3.4.2.1,1.2.7,1.5,1.8.1.4.1.8,0,1.2-.1,1-.7,1.7-.8,1.7"/>
  <path class="cls-5" d="M198.3,33.1c-.2-.2-.4-.5-.5-.8-.6-1.2-.7-2.4-.7-3.2.5.8,1.1,1.2,1.4,1.3.5.3,1.1.3,1.6.4.8,0,.9,0,1.6,0,.3,0,.8.1,1.3.4.2.1,1.2.7,1.5,1.8.1.4.1.8,0,1.2-.1,1-.7,1.7-.8,1.7"/>
  <path class="cls-1" d="M202.7,36c.3,0,1,0,1,0,0,0,0-.2,0-.4,0-.1,0-1.6-1.2-2.4-.9-.6-1.9-.5-2.6-.5-.7,0-.9.2-1.6.3,0,0-.2,0-.3,0-.6,0-1.1,0-1.7-.2-.6-.3-1-.7-1.2-1,0,.3-.2,1,0,1.7.2.6.7.9,1.1,1.2"/>
  <path class="cls-5" d="M202.7,36c.3,0,1,0,1,0,0,0,0-.2,0-.4,0-.1,0-1.6-1.2-2.4-.9-.6-1.9-.5-2.6-.5-.7,0-.9.2-1.6.3,0,0-.2,0-.3,0-.6,0-1.1,0-1.7-.2-.6-.3-1-.7-1.2-1,0,.3-.2,1,0,1.7.2.6.7.9,1.1,1.2"/>
  <line class="cls-7" x1="203.5" y1="36" x2="203.5" y2="36"/>
  <path class="cls-2" d="M203.7,36c0,0,.7.8.8,1.7,0,.4,0,.8,0,1.2-.3,1.1-1.3,1.6-1.5,1.8-.5.3-1,.4-1.3.4-.6.1-.8,0-1.6,0-.5,0-1.1.1-1.6.4-.3.2-.9.5-1.4,1.3,0-.8,0-1.9.7-3.2.2-.3.3-.6.5-.8"/>
  <path class="cls-5" d="M203.7,36c0,0,.7.8.8,1.7,0,.4,0,.8,0,1.2-.3,1.1-1.3,1.6-1.5,1.8-.5.3-1,.4-1.3.4-.6.1-.8,0-1.6,0-.5,0-1.1.1-1.6.4-.3.2-.9.5-1.4,1.3,0-.8,0-1.9.7-3.2.2-.3.3-.6.5-.8"/>
  <path class="cls-1" d="M196.4,37.2c-.5.3-.9.6-1.1,1.2-.3.7-.2,1.4,0,1.7.2-.3.6-.7,1.2-1,.6-.2,1.1-.2,1.7-.2,0,0,.2,0,.3,0,.7,0,.9.3,1.6.3.6,0,1.7.2,2.6-.5,1.1-.8,1.2-2.3,1.2-2.4,0-.1,0-.4,0-.4,0,0-.7,0-1,0"/>
  <path class="cls-5" d="M196.4,37.2c-.5.3-.9.6-1.1,1.2-.3.7-.2,1.4,0,1.7.2-.3.6-.7,1.2-1,.6-.2,1.1-.2,1.7-.2,0,0,.2,0,.3,0,.7,0,.9.3,1.6.3.6,0,1.7.2,2.6-.5,1.1-.8,1.2-2.3,1.2-2.4,0-.1,0-.4,0-.4,0,0-.7,0-1,0"/>
  <path class="cls-2" d="M202.7,36h0s0,0,0,0c-.3.7-.7,1-1,1.3-1.4,1-3.6.8-5.3,0-.7-.3-1.3-.7-1.8-1.1,0,0,0,0-.1,0,0,0,0,0,.1,0,1.9-1.6,5.2-2.6,7.1-1.2.3.2.7.6,1,1.3h0s0,0,0,0"/>
  <path class="cls-5" d="M202.7,36h0s0,0,0,0c-.3.7-.7,1-1,1.3-1.4,1-3.6.8-5.3,0-.7-.3-1.3-.7-1.8-1.1,0,0,0,0-.1,0,0,0,0,0,.1,0,1.9-1.6,5.2-2.6,7.1-1.2.3.2.7.6,1,1.3h0s0,0,0,0"/>
  <line class="cls-7" x1="221.2" y1="36" x2="205.7" y2="36"/>
  <polyline class="cls-3" points="239.2 34.3 239.2 34.3 238 36 240 36"/>
  <polyline class="cls-5" points="239.2 34.3 239.2 34.3 238 36 240 36"/>
  <polyline class="cls-3" points="240 36 238 36 239.2 37.7 239.2 37.7"/>
  <polyline class="cls-5" points="240 36 238 36 239.2 37.7 239.2 37.7"/>
  <line class="cls-7" x1="240.2" y1="36" x2="240.2" y2="36"/>
  <path class="cls-2" d="M245.4,33.1c.2-.2.4-.5.5-.8.6-1.2.7-2.4.7-3.2-.5.8-1.1,1.2-1.4,1.3-.5.3-1.1.3-1.6.4-.8,0-.9,0-1.6,0-.3,0-.8.1-1.3.4-.2.1-1.2.7-1.5,1.8-.1.4-.1.8,0,1.2.1,1,.7,1.7.8,1.7"/>
  <path class="cls-5" d="M245.4,33.1c.2-.2.4-.5.5-.8.6-1.2.7-2.4.7-3.2-.5.8-1.1,1.2-1.4,1.3-.5.3-1.1.3-1.6.4-.8,0-.9,0-1.6,0-.3,0-.8.1-1.3.4-.2.1-1.2.7-1.5,1.8-.1.4-.1.8,0,1.2.1,1,.7,1.7.8,1.7"/>
  <path class="cls-1" d="M241,36c-.3,0-1,0-1,0,0,0,0-.2,0-.4,0-.1,0-1.6,1.2-2.4.9-.6,1.9-.5,2.6-.5.7,0,.9.2,1.6.3,0,0,.2,0,.3,0,.6,0,1.1,0,1.7-.2.6-.3,1-.7,1.2-1,0,.3.2,1,0,1.7-.2.6-.7.9-1.1,1.2"/>
  <path class="cls-5" d="M241,36c-.3,0-1,0-1,0,0,0,0-.2,0-.4,0-.1,0-1.6,1.2-2.4.9-.6,1.9-.5,2.6-.5.7,0,.9.2,1.6.3,0,0,.2,0,.3,0,.6,0,1.1,0,1.7-.2.6-.3,1-.7,1.2-1,0,.3.2,1,0,1.7-.2.6-.7.9-1.1,1.2"/>
  <line class="cls-7" x1="240.2" y1="36" x2="240.2" y2="36"/>
  <path class="cls-2" d="M240,36c0,0-.7.8-.8,1.7,0,.4,0,.8,0,1.2.3,1.1,1.3,1.6,1.5,1.8.5.3,1,.4,1.3.4.6.1.8,0,1.6,0,.5,0,1.1.1,1.6.4.3.2.9.5,1.4,1.3,0-.8,0-1.9-.7-3.2-.2-.3-.3-.6-.5-.8"/>
  <path class="cls-5" d="M240,36c0,0-.7.8-.8,1.7,0,.4,0,.8,0,1.2.3,1.1,1.3,1.6,1.5,1.8.5.3,1,.4,1.3.4.6.1.8,0,1.6,0,.5,0,1.1.1,1.6.4.3.2.9.5,1.4,1.3,0-.8,0-1.9-.7-3.2-.2-.3-.3-.6-.5-.8"/>
  <path class="cls-1" d="M247.3,37.2c.5.3.9.6,1.1,1.2.3.7.2,1.4,0,1.7-.2-.3-.6-.7-1.2-1-.6-.2-1.1-.2-1.7-.2,0,0-.2,0-.3,0-.7,0-.9.3-1.6.3-.6,0-1.7.2-2.6-.5-1.1-.8-1.2-2.3-1.2-2.4,0-.1,0-.4,0-.4,0,0,.7,0,1,0"/>
  <path class="cls-5" d="M247.3,37.2c.5.3.9.6,1.1,1.2.3.7.2,1.4,0,1.7-.2-.3-.6-.7-1.2-1-.6-.2-1.1-.2-1.7-.2,0,0-.2,0-.3,0-.7,0-.9.3-1.6.3-.6,0-1.7.2-2.6-.5-1.1-.8-1.2-2.3-1.2-2.4,0-.1,0-.4,0-.4,0,0,.7,0,1,0"/>
  <path class="cls-2" d="M241,36h0s0,0,0,0c.3.7.7,1,1,1.3,1.4,1,3.6.8,5.3,0,.7-.3,1.3-.7,1.8-1.1,0,0,0,0,.1,0,0,0,0,0-.1,0-1.9-1.6-5.2-2.6-7.1-1.2-.3.2-.7.6-1,1.3h0s0,0,0,0"/>
  <path class="cls-5" d="M241,36h0s0,0,0,0c.3.7.7,1,1,1.3,1.4,1,3.6.8,5.3,0,.7-.3,1.3-.7,1.8-1.1,0,0,0,0,.1,0,0,0,0,0-.1,0-1.9-1.6-5.2-2.6-7.1-1.2-.3.2-.7.6-1,1.3h0s0,0,0,0"/>
  <line class="cls-7" x1="222.5" y1="36" x2="238" y2="36"/>
  <path class="cls-3" d="M62.2,36c0,1.3,1.1,2.4,2.4,2.4s2.4-1.1,2.4-2.4-1.1-2.4-2.4-2.4-2.4,1.1-2.4,2.4"/>
  <path class="cls-5" d="M62.2,36c0,1.3,1.1,2.4,2.4,2.4s2.4-1.1,2.4-2.4-1.1-2.4-2.4-2.4-2.4,1.1-2.4,2.4Z"/>
  <path class="cls-3" d="M162.5,36c0,1.3,1.1,2.4,2.4,2.4s2.4-1.1,2.4-2.4-1.1-2.4-2.4-2.4-2.4,1.1-2.4,2.4"/>
  <path class="cls-5" d="M162.5,36c0,1.3,1.1,2.4,2.4,2.4s2.4-1.1,2.4-2.4-1.1-2.4-2.4-2.4-2.4,1.1-2.4,2.4Z"/>
  <line class="cls-3" x1="67" y1="36" x2="162.5" y2="36"/>
  <line class="cls-5" x1="67" y1="36" x2="162.5" y2="36"/>
  <path class="cls-3" d="M276.4,36c0,1.3,1.1,2.4,2.4,2.4s2.4-1.1,2.4-2.4-1.1-2.4-2.4-2.4-2.4,1.1-2.4,2.4"/>
  <path class="cls-5" d="M276.4,36c0,1.3,1.1,2.4,2.4,2.4s2.4-1.1,2.4-2.4-1.1-2.4-2.4-2.4-2.4,1.1-2.4,2.4Z"/>
  <path class="cls-3" d="M376.8,36c0,1.3,1.1,2.4,2.4,2.4s2.4-1.1,2.4-2.4-1.1-2.4-2.4-2.4-2.4,1.1-2.4,2.4"/>
  <path class="cls-5" d="M376.8,36c0,1.3,1.1,2.4,2.4,2.4s2.4-1.1,2.4-2.4-1.1-2.4-2.4-2.4-2.4,1.1-2.4,2.4Z"/>
  <line class="cls-3" x1="281.2" y1="36" x2="376.8" y2="36"/>
  <line class="cls-5" x1="281.2" y1="36" x2="376.8" y2="36"/>
  <path class="cls-2" d="M220.3,26.3c0-.4-.1-.8-.1-1.2.3,0,1.2.2,1.7.9.2.3.3.6.3.9.2-1,.9-1.7,1.7-1.8.2,0,.3,0,.5,0,0,.3,0,.7-.1,1-.1.6-.3,1.6-1.2,2-.6.3-1.4.2-1.9-.2-.1,0-.6-.4-.8-1.5"/>
  <path class="cls-5" d="M220.3,26.3c0-.4-.1-.8-.1-1.2.3,0,1.2.2,1.7.9.2.3.3.6.3.9.2-1,.9-1.7,1.7-1.8.2,0,.3,0,.5,0,0,.3,0,.7-.1,1-.1.6-.3,1.6-1.2,2-.6.3-1.4.2-1.9-.2-.1,0-.6-.4-.8-1.5Z"/>
  <path class="cls-3" d="M220.1,25.1c0-1.4.5-2.7.9-3.5.3-.6.6-1.2,1.1-1.9.6.8,2.2,3,2.2,5.4-.1,0-.3,0-.5,0-.8,0-1.5.8-1.7,1.8,0-.2-.1-.5-.3-.9-.5-.7-1.3-.8-1.7-.9"/>
  <path class="cls-5" d="M220.1,25.1c0-1.4.5-2.7.9-3.5.3-.6.6-1.2,1.1-1.9.6.8,2.2,3,2.2,5.4-.1,0-.3,0-.5,0-.8,0-1.5.8-1.7,1.8,0-.2-.1-.5-.3-.9-.5-.7-1.3-.8-1.7-.9Z"/>
  <path class="cls-2" d="M224.3,45.7c0,.4.1.8.1,1.2-.3,0-1.2-.2-1.7-.9-.2-.3-.3-.6-.3-.9-.2,1-.9,1.7-1.7,1.8-.2,0-.3,0-.5,0,0-.3,0-.7.1-1,.1-.6.3-1.6,1.2-2,.6-.3,1.4-.2,1.9.2.1,0,.6.4.8,1.5"/>
  <path class="cls-5" d="M224.3,45.7c0,.4.1.8.1,1.2-.3,0-1.2-.2-1.7-.9-.2-.3-.3-.6-.3-.9-.2,1-.9,1.7-1.7,1.8-.2,0-.3,0-.5,0,0-.3,0-.7.1-1,.1-.6.3-1.6,1.2-2,.6-.3,1.4-.2,1.9.2.1,0,.6.4.8,1.5Z"/>
  <path class="cls-3" d="M224.4,47c0,1.4-.5,2.7-.9,3.5-.3.6-.6,1.2-1.1,1.9-.6-.8-2.2-3-2.2-5.4.1,0,.3,0,.5,0,.8,0,1.5-.8,1.7-1.8,0,.2.1.5.3.9.5.7,1.3.8,1.7.9"/>
  <path class="cls-5" d="M224.4,47c0,1.4-.5,2.7-.9,3.5-.3.6-.6,1.2-1.1,1.9-.6-.8-2.2-3-2.2-5.4.1,0,.3,0,.5,0,.8,0,1.5-.8,1.7-1.8,0,.2.1.5.3.9.5.7,1.3.8,1.7.9Z"/>
  <path class="cls-3" d="M435,35.6c0,0-.5-1.5.2-2.1.8-.4,1.2.3,2,.9.5.4,1.8-.1,1.3-2.8,0,0,2.1-.5,1.5,2.8,1-.2,2.3.4,3.3,1.6-1,1.2-2.3,1.8-3.3,1.6.6,3.2-1.5,2.8-1.5,2.8.5-2.7-.8-3.2-1.3-2.8-.7.6-1.1,1.3-2,.9-.8-.5-.2-2.2-.2-2.3,0,0,0-.4,0-.7"/>
  <path class="cls-5" d="M435,35.6c0,0-.5-1.5.2-2.1.8-.4,1.2.3,2,.9.5.4,1.8-.1,1.3-2.8,0,0,2.1-.5,1.5,2.8,1-.2,2.3.4,3.3,1.6-1,1.2-2.3,1.8-3.3,1.6.6,3.2-1.5,2.8-1.5,2.8.5-2.7-.8-3.2-1.3-2.8-.7.6-1.1,1.3-2,.9-.8-.5-.2-2.2-.2-2.3,0,0,0-.4,0-.7Z"/>
  <path class="cls-2" d="M222.1,67.9s.1,1.4-.6,2c-.7.5-.3,1.4.6,1.8.9-.5,1.3-1.3.6-1.8-.7-.5-.6-1.9-.6-1.9h0Z"/>
  <path class="cls-6" d="M222.1,67.9s.1,1.4-.6,2c-.7.5-.3,1.4.6,1.8.9-.5,1.3-1.3.6-1.8-.7-.5-.6-1.9-.6-1.9h0Z"/>
  <path class="cls-2" d="M222.2,67.8h0c0,.1,0,.2,0,.3s0,0,0,0c0,.4,0,1.3.6,1.6.3.2.4.5.4.8,0,.4-.4.9-1,1.2h0s0,0,0,0c-.6-.3-.9-.8-1-1.2,0-.3.1-.6.4-.8.5-.4.5-1.2.5-1.6,0,0,0,0,0,0,0-.1,0-.2,0-.2h0c0-.1.2-.1.2-.1ZM222.4,69.7c-.2-.2-.2-.5-.3-.7,0,.4-.2.7-.5.9-.2.2-.3.4-.3.6,0,.4.3.8.8,1,.5-.3.8-.7.8-1.1,0-.2,0-.4-.3-.6,0,0-.2-.1-.2-.2"/>
  <path class="cls-6" d="M222.2,67.8h0c0,.1,0,.2,0,.3s0,0,0,0c0,.4,0,1.3.6,1.6.3.2.4.5.4.8,0,.4-.4.9-1,1.2h0s0,0,0,0c-.6-.3-.9-.8-1-1.2,0-.3.1-.6.4-.8.5-.4.5-1.2.5-1.6,0,0,0,0,0,0,0-.1,0-.2,0-.2h0c0-.1.2-.1.2-.1ZM222.4,69.7c-.2-.2-.2-.5-.3-.7,0,.4-.2.7-.5.9-.2.2-.3.4-.3.6,0,.4.3.8.8,1,.5-.3.8-.7.8-1.1,0-.2,0-.4-.3-.6,0,0-.2-.1-.2-.2Z"/>
  <path class="cls-2" d="M225.2,66.8c0,0,0,.1.1.2.2.4.1.7-.2,1-.3.2-.6.3-.9.3-.5,0-1-.4-1.3-1-.3-.5-.5-1.2-.6-1.7-.1-.5-.2-1.1-.2-1.6h.2c0,.5,0,1,.2,1.5.1.5.3,1.1.6,1.6.3.6.7.9,1.2.9.3,0,.6-.1.8-.2.2-.2.3-.4.2-.7,0,0,0-.1-.1-.2h.1c0-.1,0,0,0,0"/>
  <path class="cls-6" d="M225.2,66.8c0,0,0,.1.1.2.2.4.1.7-.2,1-.3.2-.6.3-.9.3-.5,0-1-.4-1.3-1-.3-.5-.5-1.2-.6-1.7-.1-.5-.2-1.1-.2-1.6h.2c0,.5,0,1,.2,1.5.1.5.3,1.1.6,1.6.3.6.7.9,1.2.9.3,0,.6-.1.8-.2.2-.2.3-.4.2-.7,0,0,0-.1-.1-.2h.1c0-.1,0,0,0,0Z"/>
  <path class="cls-2" d="M224.2,66.8c-.2.2-.1.6.1.8.3.2.6.2.8,0,.2-.2.1-.6-.1-.8-.3-.2-.6-.2-.8,0"/>
  <path class="cls-6" d="M224.2,66.8c-.2.2-.1.6.1.8.3.2.6.2.8,0,.2-.2.1-.6-.1-.8-.3-.2-.6-.2-.8,0Z"/>
  <path class="cls-2" d="M225.2,66.9c.2.2.2.6,0,.8-.1.1-.3.2-.4.2-.2,0-.3,0-.5-.2-.1-.1-.2-.3-.3-.4,0-.2,0-.3.1-.5.2-.3.6-.3.9,0,0,0,0,0,.1.1M224.3,67.5s0,0,0,.1c.1,0,.2.1.4.1.1,0,.2,0,.3-.1.1-.2,0-.5-.1-.7-.2-.2-.5-.2-.7,0,0,0,0,.2,0,.3,0,0,0,.2.1.2"/>
  <path class="cls-6" d="M225.2,66.9c.2.2.2.6,0,.8-.1.1-.3.2-.4.2-.2,0-.3,0-.5-.2-.1-.1-.2-.3-.3-.4,0-.2,0-.3.1-.5.2-.3.6-.3.9,0,0,0,0,0,.1.1ZM224.3,67.5s0,0,0,.1c.1,0,.2.1.4.1.1,0,.2,0,.3-.1.1-.2,0-.5-.1-.7-.2-.2-.5-.2-.7,0,0,0,0,.2,0,.3,0,0,0,.2.1.2Z"/>
  <path class="cls-2" d="M222.2,64c0,.5-.1,1-.2,1.6-.1.5-.3,1.1-.6,1.7-.4.6-.8.9-1.3,1-.3,0-.6,0-.9-.3-.3-.2-.4-.6-.2-1,0,0,0-.2.2-.2h.1c0,.2-.1.3-.1.3-.1.3,0,.5.1.7.2.1.4.3.8.2.5,0,.8-.4,1.2-.9.3-.5.5-1.1.6-1.6.1-.5.2-1,.2-1.5h.2Z"/>
  <path class="cls-6" d="M222.2,64c0,.5-.1,1-.2,1.6-.1.5-.3,1.1-.6,1.7-.4.6-.8.9-1.3,1-.3,0-.6,0-.9-.3-.3-.2-.4-.6-.2-1,0,0,0-.2.2-.2h.1c0,.2-.1.3-.1.3-.1.3,0,.5.1.7.2.1.4.3.8.2.5,0,.8-.4,1.2-.9.3-.5.5-1.1.6-1.6.1-.5.2-1,.2-1.5h.2Z"/>
  <path class="cls-2" d="M220,66.8c.2.2.1.6-.1.8-.3.2-.6.2-.8,0-.2-.2-.1-.6.1-.8.3-.2.6-.2.8,0"/>
  <path class="cls-6" d="M220,66.8c.2.2.1.6-.1.8-.3.2-.6.2-.8,0-.2-.2-.1-.6.1-.8.3-.2.6-.2.8,0Z"/>
  <path class="cls-2" d="M220.1,66.8c0,.1.1.3.1.5,0,.2-.1.3-.3.4-.1.1-.3.2-.5.2-.2,0-.3,0-.4-.2-.2-.3-.1-.7.2-.9.3-.2.7-.2.9,0,0,0,0,0,0,0M219.1,67.5s0,0,0,0c0,0,.2.1.3.1.1,0,.3,0,.4-.1.1,0,.2-.2.2-.3,0-.1,0-.2,0-.3-.1-.2-.4-.2-.7,0-.2.2-.3.5-.1.6"/>
  <path class="cls-6" d="M220.1,66.8c0,.1.1.3.1.5,0,.2-.1.3-.3.4-.1.1-.3.2-.5.2-.2,0-.3,0-.4-.2-.2-.3-.1-.7.2-.9.3-.2.7-.2.9,0,0,0,0,0,0,0ZM219.1,67.5s0,0,0,0c0,0,.2.1.3.1.1,0,.3,0,.4-.1.1,0,.2-.2.2-.3,0-.1,0-.2,0-.3-.1-.2-.4-.2-.7,0-.2.2-.3.5-.1.6Z"/>
  <path class="cls-2" d="M222.1,4.1s-.1-1.4.6-2c.7-.5.3-1.4-.6-1.8-.9.5-1.3,1.3-.6,1.8.7.5.6,1.9.6,1.9h0Z"/>
  <path class="cls-6" d="M222.1,4.1s-.1-1.4.6-2c.7-.5.3-1.4-.6-1.8-.9.5-1.3,1.3-.6,1.8.7.5.6,1.9.6,1.9h0Z"/>
  <path class="cls-2" d="M222,4.2h0c0-.1,0-.2,0-.3s0,0,0,0c0-.4,0-1.3-.6-1.6-.3-.2-.4-.5-.4-.8,0-.4.4-.9,1-1.2h0s0,0,0,0c.6.3.9.8,1,1.2,0,.3-.1.6-.4.8-.5.4-.5,1.2-.5,1.6,0,0,0,0,0,0,0,.1,0,.2,0,.2h0c0,.1-.2.1-.2.1ZM221.8,2.3c.2.2.2.5.3.7,0-.4.2-.7.5-.9.2-.2.3-.4.3-.6,0-.4-.3-.8-.8-1-.5.3-.8.7-.8,1.1,0,.2,0,.4.3.6,0,0,.2.1.2.2"/>
  <path class="cls-6" d="M222,4.2h0c0-.1,0-.2,0-.3s0,0,0,0c0-.4,0-1.3-.6-1.6-.3-.2-.4-.5-.4-.8,0-.4.4-.9,1-1.2h0s0,0,0,0c.6.3.9.8,1,1.2,0,.3-.1.6-.4.8-.5.4-.5,1.2-.5,1.6,0,0,0,0,0,0,0,.1,0,.2,0,.2h0c0,.1-.2.1-.2.1ZM221.8,2.3c.2.2.2.5.3.7,0-.4.2-.7.5-.9.2-.2.3-.4.3-.6,0-.4-.3-.8-.8-1-.5.3-.8.7-.8,1.1,0,.2,0,.4.3.6,0,0,.2.1.2.2Z"/>
  <path class="cls-2" d="M219.1,5.2c0,0-.1-.1-.1-.2-.2-.4-.1-.7.2-1,.3-.2.6-.3.9-.3.5,0,1,.4,1.3,1,.3.5.5,1.2.6,1.7.1.5.2,1.1.2,1.6h-.2c0-.5,0-1-.2-1.5-.1-.5-.3-1.1-.6-1.6-.3-.6-.7-.9-1.2-.9-.3,0-.6.1-.8.2-.2.2-.3.4-.2.7,0,0,0,.1.1.2h-.1c0,.1,0,0,0,0"/>
  <path class="cls-6" d="M219.1,5.2c0,0-.1-.1-.1-.2-.2-.4-.1-.7.2-1,.3-.2.6-.3.9-.3.5,0,1,.4,1.3,1,.3.5.5,1.2.6,1.7.1.5.2,1.1.2,1.6h-.2c0-.5,0-1-.2-1.5-.1-.5-.3-1.1-.6-1.6-.3-.6-.7-.9-1.2-.9-.3,0-.6.1-.8.2-.2.2-.3.4-.2.7,0,0,0,.1.1.2h-.1c0,.1,0,0,0,0Z"/>
  <path class="cls-2" d="M220,5.2c.2-.2.1-.6-.1-.8-.3-.2-.6-.2-.8,0-.2.2-.1.6.1.8.3.2.6.2.8,0"/>
  <path class="cls-6" d="M220,5.2c.2-.2.1-.6-.1-.8-.3-.2-.6-.2-.8,0-.2.2-.1.6.1.8.3.2.6.2.8,0Z"/>
  <path class="cls-2" d="M219,5.1c-.2-.2-.2-.6,0-.8.1-.1.3-.2.4-.2.2,0,.3,0,.5.2.1.1.2.3.3.4,0,.2,0,.3-.1.5-.2.3-.6.3-.9,0,0,0,0,0-.1-.1M219.9,4.6s0,0,0-.1c-.1,0-.2-.1-.4-.1-.1,0-.2,0-.3.1-.1.2,0,.5.1.7.2.2.5.2.7,0,0,0,0-.2,0-.3,0,0,0-.2-.1-.2"/>
  <path class="cls-6" d="M219,5.1c-.2-.2-.2-.6,0-.8.1-.1.3-.2.4-.2.2,0,.3,0,.5.2.1.1.2.3.3.4,0,.2,0,.3-.1.5-.2.3-.6.3-.9,0,0,0,0,0-.1-.1ZM219.9,4.6s0,0,0-.1c-.1,0-.2-.1-.4-.1-.1,0-.2,0-.3.1-.1.2,0,.5.1.7.2.2.5.2.7,0,0,0,0-.2,0-.3,0,0,0-.2-.1-.2Z"/>
  <path class="cls-2" d="M222,8c0-.5.1-1,.2-1.6.1-.5.3-1.1.6-1.7.4-.6.8-.9,1.3-1,.3,0,.6,0,.9.3.3.2.4.6.2,1,0,0,0,.2-.2.2h-.1c0-.2.1-.3.1-.3.1-.3,0-.5-.1-.7-.2-.1-.4-.3-.8-.2-.5,0-.8.4-1.2.9-.3.5-.5,1.1-.6,1.6-.1.5-.2,1-.2,1.5h-.2Z"/>
  <path class="cls-6" d="M222,8c0-.5.1-1,.2-1.6.1-.5.3-1.1.6-1.7.4-.6.8-.9,1.3-1,.3,0,.6,0,.9.3.3.2.4.6.2,1,0,0,0,.2-.2.2h-.1c0-.2.1-.3.1-.3.1-.3,0-.5-.1-.7-.2-.1-.4-.3-.8-.2-.5,0-.8.4-1.2.9-.3.5-.5,1.1-.6,1.6-.1.5-.2,1-.2,1.5h-.2Z"/>
  <path class="cls-2" d="M224.2,5.2c-.2-.2-.1-.6.1-.8.3-.2.6-.2.8,0,.2.2.1.6-.1.8s-.6.2-.8,0"/>
  <path class="cls-6" d="M224.2,5.2c-.2-.2-.1-.6.1-.8.3-.2.6-.2.8,0,.2.2.1.6-.1.8s-.6.2-.8,0Z"/>
  <path class="cls-2" d="M224.2,5.3c0-.1-.1-.3-.1-.5,0-.2.1-.3.3-.4.1-.1.3-.2.5-.2.2,0,.3,0,.4.2.2.3.1.7-.2.9-.3.2-.7.2-.9,0,0,0,0,0,0,0M225.1,4.5s0,0,0,0c0,0-.2-.1-.3-.1-.1,0-.3,0-.4.1-.1,0-.2.2-.2.3,0,.1,0,.2,0,.3.1.2.4.2.7,0,.2-.2.3-.5.1-.6"/>
  <path class="cls-6" d="M224.2,5.3c0-.1-.1-.3-.1-.5,0-.2.1-.3.3-.4.1-.1.3-.2.5-.2.2,0,.3,0,.4.2.2.3.1.7-.2.9-.3.2-.7.2-.9,0,0,0,0,0,0,0ZM225.1,4.5s0,0,0,0c0,0-.2-.1-.3-.1-.1,0-.3,0-.4.1-.1,0-.2.2-.2.3,0,.1,0,.2,0,.3.1.2.4.2.7,0,.2-.2.3-.5.1-.6Z"/>
</svg>