<?xml version="1.0" encoding="UTF-8"?>
<svg id="Layer_1" data-name="Layer 1" xmlns="http://www.w3.org/2000/svg" version="1.1" viewBox="0 0 87.4 22.6">
  <defs>
    <style>
      .cls-1 {
        stroke-width: 0px;
      }

      .cls-1, .cls-2 {
        fill: none;
        stroke: #2c438b;
        stroke-miterlimit: 10;
      }

      .cls-3 {
        fill: #25a7cb;
      }

      .cls-3, .cls-4 {
        stroke-width: 0px;
      }

      .cls-2 {
        stroke-width: .4px;
      }

      .cls-4 {
        fill: #ed2d34;
      }
    </style>
  </defs>
  <path class="cls-3" d="M78.1,16.8c.5-.3.9-.6,1.4-.8.1.4.4,1.5-.2,2.4-.3.4-.6.7-.9.8,1.3-.2,2.6.3,3.1,1.2.1.2.2.4.2.6-.4.2-.9.3-1.3.4-.8.1-2.1.4-3-.4-.6-.6-.9-1.6-.7-2.4,0-.2.2-.9,1.5-1.8"/>
  <path class="cls-1" d="M78.1,16.8c.5-.3.9-.6,1.4-.8.1.4.4,1.5-.2,2.4-.3.4-.6.7-.9.8,1.3-.2,2.6.3,3.1,1.2.1.2.2.4.2.6-.4.2-.9.3-1.3.4-.8.1-2.1.4-3-.4-.6-.6-.9-1.6-.7-2.4,0-.2.2-.9,1.5-1.8"/>
  <path class="cls-3" d="M78.1,16.8c.5-.3.9-.6,1.4-.8.1.4.4,1.5-.2,2.4-.3.4-.6.7-.9.8,1.3-.2,2.6.3,3.1,1.2.1.2.2.4.2.6-.4.2-.9.3-1.3.4-.8.1-2.1.4-3-.4-.6-.6-.9-1.6-.7-2.4,0-.2.2-.9,1.5-1.8"/>
  <path class="cls-2" d="M78.1,16.8c.5-.3.9-.6,1.4-.8.1.4.4,1.5-.2,2.4-.3.4-.6.7-.9.8,1.3-.2,2.6.3,3.1,1.2.1.2.2.4.2.6-.4.2-.9.3-1.3.4-.8.1-2.1.4-3-.4-.6-.6-.9-1.6-.7-2.4,0-.2.2-.9,1.5-1.8Z"/>
  <path class="cls-4" d="M79.5,16c1.8-.7,3.6-.7,4.8-.7.8,0,1.8.1,2.9.4-.7,1.1-2.6,4.2-5.5,5.4,0-.2,0-.4-.2-.6-.5-.9-1.7-1.4-3.1-1.2.3-.1.6-.4.9-.8.6-.9.4-2,.2-2.4"/>
  <path class="cls-1" d="M79.5,16c1.8-.7,3.6-.7,4.8-.7.8,0,1.8.1,2.9.4-.7,1.1-2.6,4.2-5.5,5.4,0-.2,0-.4-.2-.6-.5-.9-1.7-1.4-3.1-1.2.3-.1.6-.4.9-.8.6-.9.4-2,.2-2.4"/>
  <path class="cls-4" d="M79.5,16c1.8-.7,3.6-.7,4.8-.7.8,0,1.8.1,2.9.4-.7,1.1-2.6,4.2-5.5,5.4,0-.2,0-.4-.2-.6-.5-.9-1.7-1.4-3.1-1.2.3-.1.6-.4.9-.8.6-.9.4-2,.2-2.4"/>
  <path class="cls-2" d="M79.5,16c1.8-.7,3.6-.7,4.8-.7.8,0,1.8.1,2.9.4-.7,1.1-2.6,4.2-5.5,5.4,0-.2,0-.4-.2-.6-.5-.9-1.7-1.4-3.1-1.2.3-.1.6-.4.9-.8.6-.9.4-2,.2-2.4Z"/>
  <path class="cls-3" d="M9.4,17.1c-.5-.3-.9-.6-1.4-.8-.1.4-.4,1.5.2,2.4.3.4.6.7.9.8-1.3-.2-2.6.3-3.1,1.2-.1.2-.2.4-.2.6.4.2.9.3,1.3.4.8.1,2.1.4,3-.4.6-.6.9-1.6.7-2.4,0-.2-.2-.9-1.5-1.8"/>
  <path class="cls-2" d="M9.4,17.1c-.5-.3-.9-.6-1.4-.8-.1.4-.4,1.5.2,2.4.3.4.6.7.9.8-1.3-.2-2.6.3-3.1,1.2-.1.2-.2.4-.2.6.4.2.9.3,1.3.4.8.1,2.1.4,3-.4.6-.6.9-1.6.7-2.4,0-.2-.2-.9-1.5-1.8"/>
  <path class="cls-3" d="M9.4,17.1c-.5-.3-.9-.6-1.4-.8-.1.4-.4,1.5.2,2.4.3.4.6.7.9.8-1.3-.2-2.6.3-3.1,1.2-.1.2-.2.4-.2.6.4.2.9.3,1.3.4.8.1,2.1.4,3-.4.6-.6.9-1.6.7-2.4,0-.2-.2-.9-1.5-1.8"/>
  <path class="cls-2" d="M9.4,17.1c-.5-.3-.9-.6-1.4-.8-.1.4-.4,1.5.2,2.4.3.4.6.7.9.8-1.3-.2-2.6.3-3.1,1.2-.1.2-.2.4-.2.6.4.2.9.3,1.3.4.8.1,2.1.4,3-.4.6-.6.9-1.6.7-2.4,0-.2-.2-.9-1.5-1.8Z"/>
  <path class="cls-4" d="M8,16.3c-1.8-.7-3.6-.7-4.8-.7-.8,0-1.8.1-2.9.4.7,1.1,2.6,4.2,5.5,5.4,0-.2,0-.4.2-.6.5-.9,1.7-1.4,3.1-1.2-.3-.1-.6-.4-.9-.8-.6-.9-.4-2-.2-2.4"/>
  <path class="cls-2" d="M8,16.3c-1.8-.7-3.6-.7-4.8-.7-.8,0-1.8.1-2.9.4.7,1.1,2.6,4.2,5.5,5.4,0-.2,0-.4.2-.6.5-.9,1.7-1.4,3.1-1.2-.3-.1-.6-.4-.9-.8-.6-.9-.4-2-.2-2.4"/>
  <path class="cls-4" d="M8,16.3c-1.8-.7-3.6-.7-4.8-.7-.8,0-1.8.1-2.9.4.7,1.1,2.6,4.2,5.5,5.4,0-.2,0-.4.2-.6.5-.9,1.7-1.4,3.1-1.2-.3-.1-.6-.4-.9-.8-.6-.9-.4-2-.2-2.4"/>
  <path class="cls-2" d="M8,16.3c-1.8-.7-3.6-.7-4.8-.7-.8,0-1.8.1-2.9.4.7,1.1,2.6,4.2,5.5,5.4,0-.2,0-.4.2-.6.5-.9,1.7-1.4,3.1-1.2-.3-.1-.6-.4-.9-.8-.6-.9-.4-2-.2-2.4Z"/>
  <path class="cls-2" d="M59.2,5.1c.9-.5,2-.5,2.7,0,1.1.8,1.1,2.5.6,3.4-1,1.9-5,2.5-6.9.6-1.8-1.8-1-5.1.5-6.9,2.2-2.6,6.9-2.5,9.6-.3,3.1,2.5,2.9,7.1,1.6,9.8-1.6,3.6-5.2,4.7-6.2,5-4.1,1.3-9,.3-12.3-3-3.5-3.5-4.9-8.5-4.8-9.4,0,4.4.6,6.5,1.2,7.7,0,0,1.7,3.7,5.4,6.5,5.4,4.2,15.5,4.9,26.4,1.6"/>
  <path class="cls-2" d="M28.5,5.1c-.9-.5-2-.5-2.7,0-1.1.8-1.1,2.5-.6,3.4,1,1.9,5,2.5,6.9.6,1.8-1.8,1-5.1-.5-6.9-2.2-2.6-6.9-2.5-9.6-.3-3.1,2.5-2.9,7.1-1.6,9.8,1.6,3.6,5.2,4.7,6.2,5,4.1,1.3,9,.3,12.3-3,3.5-3.5,4.9-8.5,4.8-9.4,0,4.4-.6,6.5-1.2,7.7,0,0-1.7,3.7-5.4,6.5-5.4,4.2-15.5,4.9-26.4,1.6"/>
</svg>