<?xml version="1.0" encoding="UTF-8"?>
<svg id="Layer_1" data-name="Layer 1" xmlns="http://www.w3.org/2000/svg" version="1.1" viewBox="0 0 233.1 74.4">
  <defs>
    <style>
      .cls-1 {
        fill: #2580c3;
      }

      .cls-1, .cls-2 {
        stroke-width: 0px;
      }

      .cls-2 {
        fill: #fff;
      }
    </style>
  </defs>
  <path class="cls-1" d="M52.4,64.7h0c-.2-.4-1-.6-1.8-.6h-1.5v8.8c0,.7.1,1.1.4,1.4h-2.6c.3-.3.4-.7.4-1.4v-8.8s-1.5,0-1.5,0c-.7,0-1.5.2-1.8.6h0v-1.1h8.4v1.1Z"/>
  <path class="cls-1" d="M57,74.3v-1.2c-.6.6-1.3,1.4-2.6,1.4s-2.5-.9-2.5-2.7v-3.4c0-.7,0-.9-.3-1.2.7,0,1.3-.1,2-.2v4.8c0,1.2.5,1.8,1.5,1.8s1.3-.5,1.6-.9v-4.4c0-.7,0-.9-.3-1.2.7,0,1.3-.1,2-.2v6c0,.7,0,1.1.3,1.4h-1.8Z"/>
  <path class="cls-1" d="M65.6,67l-.4.9h0c-.1-.3-.5-.7-1.1-.7-1,0-1.6.7-1.9,1.3v4.3c0,.7,0,1.1.3,1.4h-2.3c.2-.3.3-.7.3-1.4v-4.5c0-.7,0-1-.3-1.3.5,0,1.3,0,1.9-.2v1.4c.5-.9,1.2-1.5,2.2-1.5s1,.1,1.3.3"/>
  <path class="cls-1" d="M70.5,72.7l-1.3-2.3-.9,1v1.5c0,.7,0,1.1.3,1.4h-2.4c.3-.3.3-.7.3-1.4v-8.1c0-.7,0-1.1-.4-1.3.5,0,1.4,0,2.1-.2v7.4l3-3c.3-.3.5-.6.3-.8h1.4c-.5.1-.9.6-1.2.9l-1.5,1.5,1.9,3.3c.3.5.7,1.3,1.2,1.6h-2.5c.4-.2,0-.8-.4-1.5"/>
  <path class="cls-1" d="M76.3,74.3h-2.4c.3-.3.3-.7.3-1.4v-4.6c0-.7,0-1.1-.4-1.3.5,0,1.4,0,2.1-.2v6.1c0,.7,0,1.1.3,1.4M76.1,64.7c0,.6-.5,1-1,1s-1-.4-1-1,.4-1,1-1,1,.4,1,1"/>
  <path class="cls-1" d="M83,67.3l-.2.7h0c-.3-.4-1-.9-1.9-.9s-1.7.4-1.7,1.1c0,1.7,4.1,1.3,4.1,3.9s-1.2,2.1-3.3,2.1-2-.3-2.5-.6l.2-.7h0c.4.4,1.2.9,2.2.9s1.7-.5,1.7-1.2c0-1.8-4.1-1.3-4.1-3.8,0-1.3,1-2.1,3.1-2.1s1.9.3,2.4.6"/>
  <path class="cls-1" d="M89.8,72.9v-3.4c0-1.1-.5-1.9-1.5-1.9s-1.5.5-1.7.9v4.3c0,.7,0,1.1.3,1.4h-2.3c.2-.3.3-.7.3-1.4v-8.1c0-.7,0-1.1-.4-1.3.5,0,1.4,0,2-.2v4.7c.5-.6,1.2-1.3,2.4-1.3,1.8,0,2.6,1,2.6,2.9v3.2c0,.7,0,1.1.3,1.4h-2.3c.2-.3.3-.7.3-1.4"/>
  <path class="cls-1" d="M102.6,73.1l-.6-1.8h-4.7l-.6,1.8c-.2.6-.3,1,0,1.2h-1.4c.5-.3.5-.6.7-1.2l3.2-9.5h1.9l3.2,9.5c.1.5.2.9.7,1.2h-2.6c.4-.2.3-.6,0-1.2M101.8,70.7l-2.1-6.5-2.2,6.5h4.3Z"/>
  <path class="cls-1" d="M111.1,72.9v-3.4c0-1.1-.5-1.9-1.5-1.9s-1.5.5-1.7.9v4.3c0,.7,0,1.1.3,1.4h-2.3c.2-.3.3-.7.3-1.4v-4.5c0-.7,0-1-.3-1.3.5,0,1.3,0,2-.2v1.3c.4-.6,1.2-1.4,2.5-1.4s2.6,1,2.6,2.9v3.2c0,.7,0,1.1.3,1.4h-2.3c.2-.3.3-.7.3-1.4"/>
  <path class="cls-1" d="M119,74.3v-1c-.7.7-1.4,1.1-2.5,1.1s-2.4-.8-2.4-2.2,1.1-2.2,2.8-2.2,1.5.3,2,.7v-1.4c0-1.3-.4-2.2-1.8-2.2s-1.8.6-2.1,1h0l-.2-.8c.5-.3,1.2-.7,2.7-.7,2.3,0,3.2,1.2,3.2,3v3.4c0,.5,0,.9.2,1.1h-1.8ZM118.9,72.9v-1.7c-.3-.3-.8-.6-1.5-.6-1.2,0-1.6.7-1.6,1.5,0,.8.6,1.5,1.6,1.5s1.1-.3,1.5-.6"/>
  <path class="cls-1" d="M126.1,73.1c-.4.9-.9,1.3-1.9,1.3s-1.9-.8-1.9-2.2v-6.9c.4,0,1.1,0,1.7-.2v1.9h1.9v.5h-1.9v4.8c0,.8.2,1.3.9,1.3s.7-.2,1-.5h.1Z"/>
  <path class="cls-1" d="M134.3,70.5c0,2.2-1.6,3.8-3.8,3.8s-3.9-1.5-3.9-3.8,1.6-3.8,3.9-3.8,3.8,1.5,3.8,3.8M128.4,70.5c0,2.4.8,3.5,2,3.5s2-1.1,2-3.5c0-2.4-.8-3.5-2-3.5s-2,1.1-2,3.5"/>
  <path class="cls-1" d="M135.5,63.4c.5,0,1.4,0,2.1-.2v9.6c0,.7,0,1.1.3,1.4h-2.4c.3-.3.3-.7.3-1.4v-8.1c0-.7,0-1.1-.4-1.3"/>
  <path class="cls-1" d="M141.6,74.3h-2.4c.3-.3.3-.7.3-1.4v-4.6c0-.7,0-1.1-.4-1.3.5,0,1.4,0,2.1-.2v6.1c0,.7,0,1.1.3,1.4M141.4,64.7c0,.6-.5,1-1,1s-1-.4-1-1,.4-1,1-1,1,.4,1,1"/>
  <path class="cls-1" d="M147.5,74.3v-1c-.7.7-1.4,1.1-2.5,1.1s-2.4-.8-2.4-2.2,1.1-2.2,2.8-2.2,1.5.3,2,.7v-1.4c0-1.3-.4-2.2-1.8-2.2s-1.8.6-2.1,1h0l-.2-.8c.5-.3,1.2-.7,2.7-.7,2.3,0,3.2,1.2,3.2,3v3.4c0,.5,0,.9.2,1.1h-1.8ZM147.3,72.9v-1.7c-.3-.3-.8-.6-1.5-.6-1.2,0-1.6.7-1.6,1.5,0,.8.6,1.5,1.6,1.5s1.1-.3,1.5-.6"/>
  <path class="cls-1" d="M155.9,72.9v-3.4c0-1.1-.5-1.9-1.5-1.9s-1.5.5-1.7.9v4.3c0,.7,0,1.1.3,1.4h-2.3c.2-.3.3-.7.3-1.4v-4.5c0-.7,0-1-.3-1.3.5,0,1.3,0,2-.2v1.3c.4-.6,1.2-1.4,2.5-1.4s2.6,1,2.6,2.9v3.2c0,.7,0,1.1.3,1.4h-2.3c.2-.3.3-.7.3-1.4"/>
  <path class="cls-1" d="M164.6,68.8c0,3.3,1.4,5,3.3,5s1.5-.2,2.2-.7v-2.5c0-.8-.2-1.3-.5-1.5h2.6c-.3.2-.5.7-.5,1.5v2.6c-.9.6-2.4,1.1-3.8,1.1-3.4,0-5.3-2.5-5.3-5.5s2-5.4,5.5-5.4,2.5.4,3.1.8l-.3,1.1h0c-.4-.7-1.5-1.4-2.6-1.4-2.1,0-3.6,1.7-3.6,4.8"/>
  <path class="cls-1" d="M178.7,67l-.4.9h0c-.1-.3-.5-.7-1.1-.7-1,0-1.6.7-1.9,1.3v4.3c0,.7,0,1.1.3,1.4h-2.3c.2-.3.3-.7.3-1.4v-4.5c0-.7,0-1-.3-1.3.5,0,1.3,0,1.9-.2v1.4c.5-.9,1.2-1.5,2.2-1.5s1,.1,1.3.3"/>
  <path class="cls-1" d="M181.8,74.3h-2.4c.3-.3.3-.7.3-1.4v-4.6c0-.7,0-1.1-.4-1.3.5,0,1.4,0,2.1-.2v6.1c0,.7,0,1.1.3,1.4M181.6,64.7c0,.6-.5,1-1,1s-1-.4-1-1,.4-1,1-1,1,.4,1,1"/>
  <path class="cls-1" d="M183.1,63.4c.5,0,1.4,0,2.1-.2v9.6c0,.7,0,1.1.3,1.4h-2.4c.3-.3.3-.7.3-1.4v-8.1c0-.7,0-1.1-.4-1.3"/>
  <path class="cls-1" d="M186.7,63.4c.5,0,1.4,0,2.1-.2v9.6c0,.7,0,1.1.3,1.4h-2.4c.3-.3.3-.7.3-1.4v-8.1c0-.7,0-1.1-.4-1.3"/>
  <path class="cls-2" d="M183.2,9.3c.5.4,1,.8,1.6,1.1.6.3,1.3.4,2,.4s1.4-.1,2-.4c.6-.3,1.2-.6,1.6-1.1.5-.5.8-1,1.1-1.6.3-.6.4-1.3.4-2s-.1-1.4-.4-2c-.3-.6-.6-1.2-1.1-1.6-.5-.5-1-.8-1.6-1.1-.6-.3-1.3-.4-2-.4s-1.4.1-2,.4c-.6.3-1.2.6-1.6,1.1-.5.5-.8,1-1.1,1.6-.3.6-.4,1.3-.4,2s.1,1.4.4,2c.3.6.6,1.2,1.1,1.6"/>
  <path class="cls-2" d="M27.6,27.2c-2-2-4.4-3.7-6.9-4.9-2-.9-3.7-1.5-5.6-2.6-2.4-1.3-4.2-4-4.8-6.6-.1-.6-.2-1.2-.2-1.8,0-.5,0-.9,0-1.4,0-.1,0-.3,0-.4.6-4.2,4.5-7.7,9-6.6,2.4.6,4.8,2.9,5.2,5.3.3,1.6.1,3-1.1,3.7h0c.4-.6.6-1.4.4-2.1-.2-.6-.7-1.2-1.3-1.5-.7-.4-1.5-.4-2.3-.2-1.1.4-1.9,1.4-2.1,2.6,0,.3,0,.5,0,.8h0c0,.3,0,.6,0,.9,0,0,0,0,0,0,.3,2.2,1.9,4.7,6.3,4.4,1.4,0,3.1-.9,3.7-1.4.2-.2.4-.4.6-.6,0,0,0,0,0,0,.3-.3.6-.7.8-1.1,1.5-2.8.4-6.4-1.4-8.8-1.4-1.9-3.4-3.3-5.6-4.1-.4-.2-.9-.3-1.3-.4C16.6-.7,10.5,0,6.7,2.9,3.8,5.2,1.9,8.7,1.6,12.3c-.4,5.3,2.7,9.7,6.6,12.8.2.2.5.4.7.7,1,1.3.9,2.9.9,3.2,0,0,.1,0,.2-.1,3.1-2.1,8,.3,10.2,2.6,1.6,1.7,2.5,3.1,3.1,5.4.5,1.9.1,4.9-.7,6.8-1,2.4-3.2,4.2-5.7,4.7-.9.2-1.7.2-2.6,0-2.1-.3-4-1.3-5.1-3.1-.9-1.6-1.2-3.6-.6-5.4,0-.1.1-.3.2-.4,0,0,0,0,0,0,.2.6.7,1.2,1.3,1.5.4.2,1,.3,1.5.3h0c1.3,0,2.1-.8,2.6-1.8.2-.5.3-1.1.4-1.7,0,0,0,0,0,0,0-1.5-1.3-4.7-4.9-4.7-1.6,0-2.9.8-3,.8,0-.3.2-2.2-1.2-3.6-1.3-1.3-3.3-1.6-5.2-.8.2.3.5.9.7,1.6.6,2.2-.4,3-.8,5.5-1,6,3.9,11.7,9.1,14,4.4,1.8,10.6,1.6,14.8-.6,7.7-4.1,9.9-12.9,5.4-20.3-.5-.9-1.2-1.7-1.9-2.4"/>
  <path class="cls-2" d="M120.9,36.8c-1.2-1.3-3.5-2.3-5-3-1.2-.5-2.9-.9-4-1.6-1.6-.8-2.9-1.8-3.5-3.6-.5-1.5-.3-3.2.5-4.6,1.4-2.4,4.4-3.2,6.9-2.2,1.4.6,2.8,1.7,3.2,3.2.2,1.1.1,2-.6,2.5h0c.2-.3.4-.9.2-1.3-.1-.4-.4-.7-.8-.9-.4-.2-.9-.3-1.4-.1-.7.2-1.2.9-1.3,1.6,0,.2,0,.3,0,.5,0,.2,0,.4,0,.6.2,1.3,1.2,2.9,3.9,2.7.9,0,1.9-.5,2.3-.9.2-.1.3-.2.4-.4t0,0c.2-.2.4-.4.5-.7.5-1,.5-2.1.3-3.2-.4-2.1-3.5-6.6-10.3-6.6s-6.5,1-8.5,3.7c-2.1,2.7-2.5,6.6-.5,9.5.9,1.3,2.1,2.5,3.4,3.5.2.1.3.3.4.4.6.8.5,1.8.5,2,0,0,0,0,0,0,1.9-1.3,5.3-.1,6.9,1.2,1.1.9,1.9,2.1,2.3,3.4.4,1.3.4,2.8-.2,4.1-1.3,2.7-5.6,3.7-8.1,2-1.3-.9-2-2.4-1.5-4,0,0,0-.2.1-.3,0,0,0,0,0,0,.1.4.4.7.8.9.3.1.6.2.9.2.2,0,.3,0,.5,0,.5-.2.8-.5,1.1-.9,0,0,0,0,0,0,.1-.3.2-.7.2-1,0,0,0,0,0,0,0-.8-.5-2.2-1.9-2.7,0,0,0,0,0,0,0,0,0,0,0,0-1.9-.8-3.6.5-3.7.5,0-.2,0-1.5-.8-2.4-.8-.8-2-1-3.2-.5.1.2.3.5.4,1,.4,1.4-.2,1.8-.5,3.4-.6,3.7,2.2,7.2,5.4,8.5,2.7,1.1,8.9,1,11.7-.6,4.6-2.6,7-7.7,4.2-12.2-.3-.5-.7-1-1.1-1.5M114.2,21.4c-.2,0-.3,0-.5,0,.2,0,.3,0,.5,0"/>
  <path class="cls-2" d="M95.1,47.2v-11c0-.3,0-.5,0-.8.2-.8.7-1.4,1.3-1.7-.4-.2-.7-.5-1-1-.4-.7-.3-1.4-.4-2.2-.1-1.5-.2-3-.7-4.5-.5-1.4-1.2-2.6-2.2-3.7-1.1-1.2-2.5-2.1-4-2.6-1.6-.6-3.4-.9-5.1-.9s-4.8.5-6.8,1.7c-1.6.9-3,2.3-3.9,3.9-1.1,2-.9,4.9,1.1,6.2.6.4,1.5.7,2.2.7,3.1.2,4.2-1.6,4.4-3.1h0c0-.2,0-.4,0-.6,0-.2,0-.3,0-.5-.1-.8-.7-1.5-1.4-1.8-.5-.2-1.1-.1-1.6.1-.4.2-.7.6-.9,1-.2.4,0,1,.3,1.4h0c-.7-.4-1.1-1.2-.8-2.6.2-1.1,1-2.1,1.8-2.8,2.1-1.4,5.7-1.6,7.7,0,.2.2.4.4.6.6.2.2.3.4.5.7.1.2.2.4.3.6.4.9.6,1.8.7,2.7,0,.3,0,.6,0,.9h0c0,2-1.1,2.8-6.7,4.7-.1,0-.2,0-.3.1-.3,0-.5.2-.8.3-2.3.9-4.6,2-6.5,3.6-1.5,1.2-2.8,2.6-3.5,4.2,0,.1,0,.2-.1.3,0,0,0,.2,0,.3-.2.6-.3,1.3-.4,1.9,0,0,0,.2,0,.3s0,.1,0,.2c0,0,0,.2,0,.2,0,0,0,0,0,.2,0,.5.1.9.3,1.4.8,2.5,2.7,4.3,5,5.4,1.3.6,2.8.8,4.5.8s3.2-.4,4.6-1.1c1.4-.7,3-1.9,3.8-3.4h0c0,2.3,1.9,4.1,4.1,4.1h7.8c-2.2-.1-3.9-2-3.9-4.2M87.2,43.9c-.2.8-.5,1.5-1.1,2.1h0c-.3.3-.6.5-1,.7-.4.2-.8.3-1.2.4-.3,0-.6,0-.8,0-.4,0-.8,0-1.2-.1-.7-.1-1.4-.4-2-.8-.2-.1-.3-.2-.5-.3,0,0-.1,0-.2-.1-.1-.1-.3-.2-.4-.3-.4-.4-.8-.8-1-1.3-.7-1.2-.9-2.6-.6-4,0-.2,0-.4.2-.6,0-.2.1-.4.2-.6.1-.3.2-.5.4-.8,0-.2.2-.3.3-.5.4-.6,1-1.2,1.6-1.7.2-.2.4-.4.7-.6.6-.5,1.3-.9,2-1.3.4-.2.7-.4,1.1-.6.4-.2.7-.4,1.1-.5.4-.2,1.9-.9,2.5-1.2v12.1Z"/>
  <path class="cls-2" d="M165.1,14.9h0v15.4c0,.6-.1,1.2-.4,1.6-.3.5-.6.8-1,1,.8.4,1.4,1.5,1.4,2.7v11.8c0,.5,0,1-.2,1.4-.2.6-.5,1-1,1.4-.7.6-1.4.9-2.2,1.1h0c0,0,15.1,0,15.1,0h0c-.9-.3-1.7-.7-2.3-1.3-.7-.7-1.1-1.6-1.1-2.7v-11.7c0-1.2.6-2.3,1.4-2.7-.4-.2-.8-.6-1-1-.3-.5-.4-1-.4-1.6v-15.8h0"/>
  <path class="cls-2" d="M182.7,27.2v3.1c0,.6-.2,1.2-.4,1.6-.3.5-.6.8-1,1,.8.4,1.4,1.5,1.4,2.7v11.7c0,1.2-.3,2.1-1,2.8-.7.7-1.5,1.1-2.4,1.3h0c0,0,15.2,0,15.2,0h0c-.9-.3-1.7-.7-2.4-1.3-.7-.7-1-1.6-1-2.7v-11.8c0-.4,0-.8.2-1.1.2-.7.7-1.2,1.2-1.5-.4-.2-.8-.6-1-1,0-.1-.1-.3-.2-.4-.1-.4-.2-.8-.2-1.1v-3.3"/>
  <path class="cls-2" d="M233.1,51.2h0c0,.1-14.9.1-14.9.1h0c.4-.2.8-.4,1.1-.8.4-.4.6-.9.6-1.5s0-.7-.3-1.1c0,0,0,0,0-.1,0,0,0,0,0,0,0,0,0,0,0,0,0,0,0,0,0,0-1.4-1.9-2.6-3.9-3.9-5.8-1.6-2.4-4.5-7.2-5-7.7-.9-.8-1.6-.8-1.9-.8v-1.4c2,0,4.3-1.1,6.8-2.9,2.4-1.7,2.6-2.3,4.5-4.1.3-.3.6-.6.9-.9,0,0,0,0,0,0,.4-.5.7-1.1.7-1.8s0-.8-.3-1.2c-.4-.9-1.3-1.5-2.4-1.5h11.6c-6.5,1.4-9.5,7-14.2,10.8,4.2,5.9,6.4,10.1,10.7,15.7,2.5,3.3,4.4,4.2,6.3,4.9"/>
  <path class="cls-2" d="M68.4,51.4h-15.2s0,0,0,0c0,0,0,0,0,0,.5-.1,1.6-.4,2.4-1.3,1-1.1,1.1-2.4,1.1-2.8v-20.2h0c0,0,0,0,0,0,0-2.9-2.4-5.2-5.3-5.2h0c-2.9,0-5.3,2.4-5.3,5.3s0,1.7,0,2.2v18.1c0,.3,0,1.6,1.1,2.7,0,0,0,0,.1.1.7.6,1.4,1,2.2,1.1h0c0,0-15.1,0-15.1,0h0c0,0,0,0,0,0,1.9-.4,3.3-2.1,3.3-4.1v-1.4s0-5.8,0-10.2c0-.3,0-.6,0-.9-.2-.8-.7-1.5-1.3-1.8.4-.2.8-.6,1-1,.2-.3.3-.7.4-1.1,0-.2,0-.3,0-.5,0-3.7,0-11.7,0-16.7v-4.4c0-2.1-1.4-3.8-3.3-4.3,0,0,0,0,0,0h0s0,0,0,0c4.4,0,8.5-1.6,11.6-4.2h0s0,21.9,0,21.9c.1-.2.4-.5.7-.8,4.4-4,18.2-6,18.2,8.1v17.3c0,.3,0,1.6,1.1,2.8.9,1,1.8,1.3,2.4,1.3,0,0,0,0,0,0"/>
  <path class="cls-2" d="M200.2,15.6v31.8c0,.5,0,1-.2,1.4-.2.6-.5,1-1,1.4-.7.6-1.4.9-2.2,1.1h0c0,0,15.2,0,15.2,0h0c-.9-.3-1.6-.7-2.3-1.3-.7-.7-1.1-1.6-1.1-2.7v-13.8c0,0,0,0-.1,0v-1.4s0,0,0,0V13.6h0"/>
  <path class="cls-2" d="M200.2,19.2c0-1.5,0-3.2,0-5.6s0-4.4,0-4.4c0-2.1-1.4-3.8-3.3-4.3,0,0,0,0,0,0h0s0,0,0,0c4.4,0,8.5-1.6,11.6-4.2h0s0,13,0,13v5.3"/>
  <path class="cls-2" d="M182.7,27.5c0-2.6,0-3.3,0-3.4,0-2.1-1.4-3.8-3.3-4.3,0,0,0,0,0,0h0s0,0,0,0c4.4,0,8.5-1.6,11.6-4.2h0s0,11.9,0,11.9"/>
  <path class="cls-2" d="M165.1,19.2c0-1.5,0-3.2,0-5.6s0-4.4,0-4.4c0-2.1-1.4-3.8-3.3-4.3,0,0,0,0,0,0h0s0,0,0,0c4.4,0,8.4-1.6,11.6-4.2h0s0,12.9,0,12.9v5.3"/>
  <path class="cls-2" d="M159.3,51.4h-15.2s0,0,0,0c0,0,0,0,0,0,.5-.1,1.6-.4,2.4-1.3,1-1.1,1.1-2.4,1.1-2.8v-20.2h0c0,0,0,0,0,0,0-2.9-2.4-5.2-5.3-5.2h0c-2.9,0-5.3,2.4-5.3,5.3s0,1.7,0,2.2v18.1c0,.3,0,1.6,1.1,2.7,0,0,0,0,.1.1.7.6,1.4,1,2.2,1.1h0c0,0-15.1,0-15.1,0h0c0,0,0,0,0,0,1.9-.4,3.3-2.1,3.3-4.1v-1.4s0-5.8,0-10.2c0-.3,0-.6,0-.9-.2-.8-.7-1.5-1.3-1.8.4-.2.8-.6,1-1,.2-.3.3-.7.4-1.1,0-.2,0-.3,0-.5,0-3.7,0-11.7,0-16.7v-4.4c0-2.1-1.4-3.8-3.3-4.3,0,0,0,0,0,0h0s0,0,0,0c4.4,0,8.5-1.6,11.6-4.2h0s0,21.9,0,21.9c.1-.2.4-.5.7-.8,4.4-4,18.2-6,18.2,8.1v17.3c0,.3,0,1.6,1.1,2.8.9,1,1.8,1.3,2.4,1.3,0,0,0,0,0,0"/>
</svg>